<?xml version="1.0" encoding="UTF-8" standalone="no"?><!DOCTYPE svg PUBLIC "-//W3C//DTD SVG 1.1//EN" "http://www.w3.org/Graphics/SVG/1.1/DTD/svg11.dtd"><svg width="100%" height="100%" viewBox="0 0 45 41" version="1.1" xmlns="http://www.w3.org/2000/svg" xmlns:xlink="http://www.w3.org/1999/xlink" xml:space="preserve" xmlns:serif="http://www.serif.com/" style="fill-rule:evenodd;clip-rule:evenodd;stroke-linecap:round;stroke-linejoin:round;stroke-miterlimit:1.5;"><g><g><path d="M38.524,1.5c-30.077,4.16 -27.74,-0.396 -33.046,16.692c-1.107,3.563 -2.401,8.422 -3.46,12.606c-1.309,5.17 -0.113,7.81 3.318,8.32l5.202,-0.5c3.196,-1.036 4.728,-5.803 5.18,-11.1c11.242,-1.187 9.386,-3.633 11.258,-12.308c10.533,-0.723 10.549,-4.051 11.548,-13.71Z" style="fill:none;stroke:#fff;stroke-width:3px;"/><path d="M4.622,21.067c0.835,-3.997 10.877,-5.148 22.354,-5.857" style="fill:none;stroke:#fff;stroke-width:3px;"/><path d="M1.774,31.874c0.809,-3.635 7.291,-3.642 13.944,-4.356" style="fill:none;stroke:#fff;stroke-width:3px;"/></g><g><path d="M25.794,35.196l15.324,0.017l-15.324,-0.017Z" style="fill:none;stroke:#fff;stroke-width:2.5px;"/><path d="M31.049,32.108l-5.255,3.088" style="fill:none;stroke:#fff;stroke-width:2.5px;"/><path d="M25.794,35.213l5.255,3.089" style="fill:none;stroke:#fff;stroke-width:2.5px;"/></g><g><path d="M43.314,26.697l-15.324,-0.017l15.324,0.017Z" style="fill:none;stroke:#fff;stroke-width:3px;"/><path d="M38.059,29.785l5.255,-3.088" style="fill:none;stroke:#fff;stroke-width:3px;"/><path d="M43.314,26.68l-5.255,-3.089" style="fill:none;stroke:#fff;stroke-width:3px;"/></g></g></svg>